# xmcd CD database file
#
# Track frame offsets:
#	300
#	15764
#	31944
#	44403
#	60739
#	77768
#	98288
#	112685
#	125463
#	137806
#	148779
#	165152
#	180510
#	199014
#	211342
#	225828
#	239226
#	252386
#	268924
#	286581
#	302708
#
# Disc length: 4220 seconds
#
# Revision: 0
# Processed by: cddbd v1.5.1PL2 Copyright (c) Steve Scherf et al.
# Submitted via: CDex 1.51
#
DISCID=12107815
DTITLE=Tuxedo Jazz Band - Med Rolf Carvenius
DYEAR=2002
DGENRE=Jazz
TTITLE0=Oh, didn't he ramble
TTITLE1=Stardust
TTITLE2=Potatoe head blues
TTITLE3=That's my home
TTITLE4=Ory's creole trombone
TTITLE5=Bunk's blues
TTITLE6=Copenhagen
TTITLE7=Sugar blues
TTITLE8=Stevedore stomp
TTITLE9=Petite fleur
TTITLE10=The chant
TTITLE11=The mooche
TTITLE12=Det går lätt som fan
TTITLE13=The drafting blues
TTITLE14=I'm wondering who
TTITLE15=Wild cat blues
TTITLE16=Friendless blues
TTITLE17=Climax rag
TTITLE18=Dead man blues
TTITLE19=Big noise from winnetka
TTITLE20=Smoke rings
EXTD=YEAR: 2002
EXTT0=
EXTT1=
EXTT2=
EXTT3=
EXTT4=
EXTT5=
EXTT6=
EXTT7=
EXTT8=
EXTT9=
EXTT10=
EXTT11=
EXTT12=
EXTT13=
EXTT14=
EXTT15=
EXTT16=
EXTT17=
EXTT18=
EXTT19=
EXTT20=
PLAYORDER=
